<svg viewBox="112.09 111.89 991.07 277.67" fill="none" xmlns="http://www.w3.org/2000/svg">
<path fill-rule="evenodd" clip-rule="evenodd" d="M465.119 179.573H520.081C554.112 179.573 578.176 202.213 578.176 234.393C578.176 266.573 554.112 289.212 520.081 289.212H465.119V179.573ZM507.836 259.595H517.803C528.482 259.595 534.178 252.476 534.178 234.393C534.178 216.309 528.482 209.19 517.803 209.19H507.836V259.595ZM674.999 289.212H584.724V179.573H674.999V209.19H627.298V221.862H672.151V246.068H627.298V259.595H674.999V289.212ZM775.525 289.212H685.251V179.573H775.525V209.19H727.825V221.862H772.678V246.068H727.825V259.595H775.525V289.212ZM1103.16 289.212C1097.01 272.448 1088.41 254.559 1076.83 234.508C1090.37 230.538 1098.46 222.005 1098.46 208.905C1098.46 188.97 1080.1 179.573 1051.05 179.573H991.246V289.212H1033.96V243.86C1043.45 259.845 1050.45 274.928 1055.04 289.212H1103.16ZM1033.96 228.555V209.19H1048.77C1055.04 209.19 1058.6 212.607 1058.6 218.872C1058.6 225.137 1055.04 228.555 1048.77 228.555H1033.96ZM980.994 289.212H890.719V179.573H980.994V209.19H933.294V221.862H978.147V246.068H933.294V259.595H980.994V289.212ZM785.779 209.19H829.855C811.568 224.152 796.518 241.099 784.924 259.595V289.212H881.891V259.595H833.425C844.531 243.437 860.05 227.347 881.891 209.19V179.573H785.779V209.19Z" fill="black"></path>
<path fill-rule="evenodd" clip-rule="evenodd" d="M344.97 154.256C347.539 139.366 351.309 130.003 355.485 129.985H355.493C363.28 130.012 369.592 162.483 369.592 202.575C369.592 242.666 363.271 275.164 355.476 275.164C352.28 275.164 349.331 269.647 346.957 260.4C343.205 294.249 335.419 317.518 326.405 317.518C319.431 317.518 313.172 303.54 308.97 281.496C306.101 323.421 298.88 353.165 290.44 353.165C285.143 353.165 280.314 341.378 276.739 322.186C272.44 361.804 262.508 389.563 250.926 389.563C239.344 389.563 229.394 361.813 225.113 322.186C221.564 341.378 216.735 353.165 211.412 353.165C202.972 353.165 195.769 323.421 192.882 281.496C188.68 303.54 182.438 317.518 175.447 317.518C166.442 317.518 158.647 294.258 154.895 260.4C152.538 269.674 149.572 275.164 146.376 275.164C138.581 275.164 132.26 242.666 132.26 202.575C132.26 162.483 138.581 129.985 146.376 129.985C150.56 129.985 154.304 139.375 156.899 154.256C161.057 128.581 167.81 111.893 175.447 111.893C184.513 111.893 192.37 135.494 196.086 169.763C199.724 144.821 205.241 128.921 211.421 128.921C220.081 128.921 227.443 160.194 230.171 203.818C235.3 181.451 242.725 167.42 250.944 167.42C259.162 167.42 266.587 181.46 271.707 203.818C274.444 160.194 281.797 128.921 290.458 128.921C296.628 128.921 302.137 144.821 305.792 169.763C309.5 135.494 317.357 111.893 326.423 111.893C334.033 111.893 340.812 128.59 344.97 154.256ZM112.089 195.435C112.089 177.513 115.673 162.981 120.096 162.981C124.519 162.981 128.103 177.513 128.103 195.435C128.103 213.357 124.519 227.889 120.096 227.889C115.673 227.889 112.089 213.357 112.089 195.435ZM373.743 195.435C373.743 177.513 377.327 162.981 381.75 162.981C386.172 162.981 389.757 177.513 389.757 195.435C389.757 213.357 386.172 227.889 381.75 227.889C377.327 227.889 373.743 213.357 373.743 195.435Z" fill="#A238FF"></path>
</svg>
